HIERARCHY
ROOT Hips
{
	OFFSET 0.00000 0.00000 0.00000
	CHANNELS 6 Xposition Yposition Zposition Zrotation Yrotation Xrotation 
	JOINT LHipJoint
	{
		OFFSET 0 0 0
		CHANNELS 3 Zrotation Yrotation Xrotation
		JOINT LeftUpLeg
		{
			OFFSET 1.56857 -1.73443 1.15205
			CHANNELS 3 Zrotation Yrotation Xrotation
			JOINT LeftLeg
			{
				OFFSET 2.39362 -6.57643 0.00000
				CHANNELS 3 Zrotation Yrotation Xrotation
				JOINT LeftFoot
				{
					OFFSET 2.50952 -6.89485 0.00000
					CHANNELS 3 Zrotation Yrotation Xrotation
					JOINT LeftToeBase
					{
						OFFSET 0.17171 -0.47178 1.88682
						CHANNELS 3 Zrotation Yrotation Xrotation
						End Site
						{
							OFFSET 0.00000 -0.00000 0.98146
						}
					}
				}
			}
		}
	}
	JOINT RHipJoint
	{
		OFFSET 0 0 0
		CHANNELS 3 Zrotation Yrotation Xrotation
		JOINT RightUpLeg
		{
			OFFSET -1.28153 -1.73443 1.15205
			CHANNELS 3 Zrotation Yrotation Xrotation
			JOINT RightLeg
			{
				OFFSET -2.26861 -6.23296 0.00000
				CHANNELS 3 Zrotation Yrotation Xrotation
				JOINT RightFoot
				{
					OFFSET -2.54143 -6.98254 0.00000
					CHANNELS 3 Zrotation Yrotation Xrotation
					JOINT RightToeBase
					{
						OFFSET -0.23309 -0.64041 1.93119
						CHANNELS 3 Zrotation Yrotation Xrotation
						End Site
						{
							OFFSET -0.00000 -0.00000 1.02013
						}
					}
				}
			}
		}
	}
	JOINT LowerBack
	{
		OFFSET 0 0 0
		CHANNELS 3 Zrotation Yrotation Xrotation
		JOINT Spine
		{
			OFFSET -0.07096 2.10460 -0.27878
			CHANNELS 3 Zrotation Yrotation Xrotation
			JOINT Spine1
			{
				OFFSET -0.00826 2.13662 -0.08279
				CHANNELS 3 Zrotation Yrotation Xrotation
				JOINT Neck
				{
					OFFSET 0 0 0
					CHANNELS 3 Zrotation Yrotation Xrotation
					JOINT Neck1
					{
						OFFSET 0.03239 1.77799 0.24435
						CHANNELS 3 Zrotation Yrotation Xrotation
						JOINT Head
						{
							OFFSET 0.01026 1.74194 -0.49664
							CHANNELS 3 Zrotation Yrotation Xrotation
							End Site
							{
								OFFSET 0.00170 1.83057 -0.19653
							}
						}
					}
				}
				JOINT LeftShoulder
				{
					OFFSET 0 0 0
					CHANNELS 3 Zrotation Yrotation Xrotation
					JOINT LeftArm
					{
						OFFSET 3.19178 1.35907 -0.31412
						CHANNELS 3 Zrotation Yrotation Xrotation
						JOINT LeftForeArm
						{
							OFFSET 4.85247 -0.00000 -0.00000
							CHANNELS 3 Zrotation Yrotation Xrotation
							JOINT LeftHand
							{
								OFFSET 3.55584 -0.00000 0.00000
								CHANNELS 3 Zrotation Yrotation Xrotation
								JOINT LeftFingerBase
								{
									OFFSET 0 0 0
									CHANNELS 3 Zrotation Yrotation Xrotation
									JOINT LeftHandIndex1
									{
										OFFSET 0.69320 -0.00000 0.00000
										CHANNELS 3 Zrotation Yrotation Xrotation
										End Site
										{
											OFFSET 0.55888 -0.00000 0.00000
										}
									}
								}
								JOINT LThumb
								{
									OFFSET 0 0 0
									CHANNELS 3 Zrotation Yrotation Xrotation
									End Site
									{
										OFFSET 0.56741 -0.00000 0.56741
									}
								}
							}
						}
					}
				}
				JOINT RightShoulder
				{
					OFFSET 0 0 0
					CHANNELS 3 Zrotation Yrotation Xrotation
					JOINT RightArm
					{
						OFFSET -3.28999 1.24191 -0.26899
						CHANNELS 3 Zrotation Yrotation Xrotation
						JOINT RightForeArm
						{
							OFFSET -4.64462 -0.00000 0.00000
							CHANNELS 3 Zrotation Yrotation Xrotation
							JOINT RightHand
							{
								OFFSET -3.40703 -0.00000 0.00000
								CHANNELS 3 Zrotation Yrotation Xrotation
								JOINT RightFingerBase
								{
									OFFSET 0 0 0
									CHANNELS 3 Zrotation Yrotation Xrotation
									JOINT RightHandIndex1
									{
										OFFSET -0.61958 -0.00000 0.00000
										CHANNELS 3 Zrotation Yrotation Xrotation
										End Site
										{
											OFFSET -0.49952 -0.00000 0.00000
										}
									}
								}
								JOINT RThumb
								{
									OFFSET 0 0 0
									CHANNELS 3 Zrotation Yrotation Xrotation
									End Site
									{
										OFFSET -0.50715 -0.00000 0.50715
									}
								}
							}
						}
					}
				}
			}
		}
	}
}
MOTION
Frames: 6
Frame Time: .0083333
-29.7638 17.0851 1.302 0 0 0 0 0 0 -21 0 0 0 0 0 0 0 0 0 0 0 0 0 0 21 0 0 0 0 0 0 0 0 0 0 0 0 0 0 0 0 0 0 0 0 0 0 -16 0 0 21 0 0 11 0 0 0 -8 0 0 0 0 0 0 0 0 0 0 0 0 0 0 0 0 0 0 0 0 8 0 0 0 0 0 0 0 0 0 0 0 0 0 0 0 0 0
-29.7638 17.0851 1.3020 59.5539 87.3840 58.4519 0.0000 0.0000 0.0000 -15.0191 4.6473 10.7844 0.0115 0.6916 1.9006 0.4219 9.3822 -19.0668 0.3174 -3.6216 -10.0144 0.0000 0.0000 0.0000 10.7812 -5.8946 7.1212 -0.0380 -1.2576 3.4579 -0.3577 9.1161 -11.5939 -0.0628 -1.6163 4.4464 -4.8283 1.5165 5.7961 -0.0923 1.7219 0.5478 2.4716 0.9202 -2.8243 3.3002 2.0111 -23.4431 -0.9348 1.9391 21.2740 -0.5685 1.0668 10.7720 -0.0000 0.0000 0.0000 -86.5624 -0.7273 43.0615 15.3588 -24.6436 -3.3741 -0.0000 -0.0000 7.0394 19.4468 -26.3998 -8.9219 -7.1250 0.0000 -0.0000 -6.2841 2.3611 6.0568 -0.0000 0.0000 0.0000 86.0991 -5.4495 36.0818 -17.3591 27.3287 -4.2509 0.0000 0.0000 1.4207 -13.2934 -29.4245 6.6208 7.1250 -0.0000 -0.0000 20.0488 -58.9353 -7.0050
-29.7655 17.0841 1.3004 59.3796 87.3761 58.2934 0.0000 0.0000 0.0000 -15.0610 4.5635 10.8080 0.0110 0.6776 1.8621 0.4241 9.4093 -19.1177 0.3100 -3.5797 -9.8971 0.0000 0.0000 0.0000 10.7562 -5.9001 7.1115 -0.0371 -1.2440 3.4205 -0.3574 9.1848 -11.6133 -0.0664 -1.6625 4.5738 -4.8535 1.4971 5.7473 -0.0662 1.6987 0.5741 2.5163 0.9075 -2.7694 3.3041 2.0542 -23.4626 -0.9233 1.9929 21.2403 -0.5563 1.0924 10.7643 -0.0000 -0.0000 0.0000 -86.7220 -0.8064 42.8461 15.0461 -24.2103 -3.2448 -0.0000 -0.0000 7.3519 19.9144 -26.6597 -9.2327 -7.1250 0.0000 -0.0000 -6.0300 2.0133 5.8473 -0.0000 -0.0000 0.0000 86.0608 -5.4737 36.0629 -17.2702 27.2126 -4.2101 0.0000 0.0000 1.4877 -13.0388 -28.3875 6.2830 7.1250 -0.0000 -0.0000 19.5864 -57.9069 -6.3471
-29.7656 17.0817 1.3001 59.0205 87.2778 57.9426 0.0000 0.0000 0.0000 -15.1776 4.5481 10.8574 0.0100 0.6462 1.7757 0.4088 9.5881 -19.1317 0.3146 -3.6056 -9.9697 0.0000 0.0000 0.0000 10.6664 -5.8518 7.1611 -0.0349 -1.2057 3.3151 -0.3574 9.1838 -11.6124 -0.0650 -1.6446 4.5245 -4.8725 1.5241 5.7911 -0.1275 1.7274 0.5157 2.4592 0.9245 -2.8554 3.3859 2.0582 -23.3694 -0.9564 1.9832 21.2514 -0.5838 1.0916 10.7525 -0.0000 0.0000 0.0000 -86.7022 -0.6005 42.8958 14.8916 -23.9949 -3.1817 -0.0000 -0.0000 7.6093 20.4815 -27.1492 -9.6725 -7.1250 0.0000 -0.0000 -5.7439 1.4091 5.6295 -0.0000 0.0000 0.0000 86.1398 -5.7512 36.0288 -17.2663 27.2075 -4.2084 0.0000 0.0000 1.6354 -12.9595 -28.0901 6.1842 7.1250 -0.0000 -0.0000 19.4684 -57.6102 -6.1663
-29.7665 17.0799 1.3002 57.7412 87.2098 56.6413 0.0000 0.0000 0.0000 -15.2055 4.6149 10.9046 0.0095 0.6281 1.7259 0.3908 9.7534 -19.1038 0.3368 -3.7295 -10.3168 0.0000 0.0000 0.0000 10.6379 -5.8168 7.1970 -0.0338 -1.1874 3.2645 -0.3555 9.1555 -11.5796 -0.0654 -1.6496 4.5383 -4.8879 1.5441 5.8069 -0.1418 1.7521 0.5224 2.4506 0.9369 -2.8593 3.3728 2.0704 -23.3643 -0.9136 1.9951 21.2912 -0.5642 1.1021 10.7659 -0.0000 -0.0000 0.0000 -86.7047 -0.5037 42.8304 14.7317 -23.7710 -3.1170 -0.0000 -0.0000 7.8520 20.1972 -27.4899 -9.6373 -7.1250 0.0000 -0.0000 -5.9512 1.1114 5.8666 -0.0000 -0.0000 0.0000 86.1474 -5.9369 36.0217 -17.2125 27.1371 -4.1838 0.0000 0.0000 1.8280 -13.1412 -28.2881 6.3136 7.1250 -0.0000 -0.0000 19.4138 -57.8355 -6.2546
-29.7675 17.0792 1.2996 57.1286 87.2021 56.0157 0.0000 0.0000 0.0000 -15.2040 4.6374 10.9500 0.0090 0.6119 1.6814 0.3917 9.7655 -19.1257 0.3833 -3.9761 -11.0094 0.0000 0.0000 0.0000 10.5740 -6.0126 7.1207 -0.0347 -1.2019 3.3045 -0.3407 9.3133 -11.4548 -0.0615 -1.6002 4.4020 -4.9297 1.5525 5.7809 -0.0913 1.7651 0.5699 2.5265 0.9421 -2.7995 3.3194 2.0541 -23.4496 -0.9281 1.9921 21.3406 -0.5605 1.0942 10.7992 0.0000 -0.0000 0.0000 -86.8328 -0.5132 42.7397 14.5018 -23.4475 -3.0249 -0.0000 -0.0000 8.3810 19.0925 -26.3479 -8.7336 -7.1250 0.0000 -0.0000 -6.4921 2.4749 6.2464 0.0000 -0.0000 0.0000 86.0954 -5.9098 35.9455 -17.0605 26.9375 -4.1147 0.0000 0.0000 2.0274 -13.3160 -27.9076 6.3214 7.1250 -0.0000 -0.0000 18.9820 -57.5140 -5.9601
